<?xml version='1.0' encoding='UTF-8'?>
<svg width="37mm" height="37mm" version="1.1" viewBox="0 0 37 37" xmlns="http://www.w3.org/2000/svg"><path d="M2,2H3V3H2zM3,2H4V3H3zM4,2H5V3H4zM5,2H6V3H5zM6,2H7V3H6zM7,2H8V3H7zM8,2H9V3H8zM10,2H11V3H10zM12,2H13V3H12zM16,2H17V3H16zM20,2H21V3H20zM23,2H24V3H23zM24,2H25V3H24zM28,2H29V3H28zM29,2H30V3H29zM30,2H31V3H30zM31,2H32V3H31zM32,2H33V3H32zM33,2H34V3H33zM34,2H35V3H34zM2,3H3V4H2zM8,3H9V4H8zM10,3H11V4H10zM12,3H13V4H12zM14,3H15V4H14zM18,3H19V4H18zM19,3H20V4H19zM21,3H22V4H21zM23,3H24V4H23zM28,3H29V4H28zM34,3H35V4H34zM2,4H3V5H2zM4,4H5V5H4zM5,4H6V5H5zM6,4H7V5H6zM8,4H9V5H8zM10,4H11V5H10zM11,4H12V5H11zM12,4H13V5H12zM13,4H14V5H13zM19,4H20V5H19zM20,4H21V5H20zM23,4H24V5H23zM26,4H27V5H26zM28,4H29V5H28zM30,4H31V5H30zM31,4H32V5H31zM32,4H33V5H32zM34,4H35V5H34zM2,5H3V6H2zM4,5H5V6H4zM5,5H6V6H5zM6,5H7V6H6zM8,5H9V6H8zM11,5H12V6H11zM12,5H13V6H12zM23,5H24V6H23zM25,5H26V6H25zM26,5H27V6H26zM28,5H29V6H28zM30,5H31V6H30zM31,5H32V6H31zM32,5H33V6H32zM34,5H35V6H34zM2,6H3V7H2zM4,6H5V7H4zM5,6H6V7H5zM6,6H7V7H6zM8,6H9V7H8zM10,6H11V7H10zM11,6H12V7H11zM12,6H13V7H12zM14,6H15V7H14zM15,6H16V7H15zM16,6H17V7H16zM17,6H18V7H17zM20,6H21V7H20zM22,6H23V7H22zM23,6H24V7H23zM28,6H29V7H28zM30,6H31V7H30zM31,6H32V7H31zM32,6H33V7H32zM34,6H35V7H34zM2,7H3V8H2zM8,7H9V8H8zM11,7H12V8H11zM14,7H15V8H14zM22,7H23V8H22zM24,7H25V8H24zM25,7H26V8H25zM28,7H29V8H28zM34,7H35V8H34zM2,8H3V9H2zM3,8H4V9H3zM4,8H5V9H4zM5,8H6V9H5zM6,8H7V9H6zM7,8H8V9H7zM8,8H9V9H8zM10,8H11V9H10zM12,8H13V9H12zM14,8H15V9H14zM16,8H17V9H16zM18,8H19V9H18zM20,8H21V9H20zM22,8H23V9H22zM24,8H25V9H24zM26,8H27V9H26zM28,8H29V9H28zM29,8H30V9H29zM30,8H31V9H30zM31,8H32V9H31zM32,8H33V9H32zM33,8H34V9H33zM34,8H35V9H34zM11,9H12V10H11zM12,9H13V10H12zM14,9H15V10H14zM15,9H16V10H15zM21,9H22V10H21zM22,9H23V10H22zM24,9H25V10H24zM26,9H27V10H26zM2,10H3V11H2zM5,10H6V11H5zM6,10H7V11H6zM7,10H8V11H7zM8,10H9V11H8zM9,10H10V11H9zM10,10H11V11H10zM11,10H12V11H11zM14,10H15V11H14zM16,10H17V11H16zM17,10H18V11H17zM18,10H19V11H18zM19,10H20V11H19zM21,10H22V11H21zM24,10H25V11H24zM26,10H27V11H26zM27,10H28V11H27zM30,10H31V11H30zM32,10H33V11H32zM33,10H34V11H33zM34,10H35V11H34zM2,11H3V12H2zM5,11H6V12H5zM11,11H12V12H11zM14,11H15V12H14zM17,11H18V12H17zM20,11H21V12H20zM21,11H22V12H21zM23,11H24V12H23zM25,11H26V12H25zM30,11H31V12H30zM31,11H32V12H31zM32,11H33V12H32zM2,12H3V13H2zM4,12H5V13H4zM7,12H8V13H7zM8,12H9V13H8zM16,12H17V13H16zM17,12H18V13H17zM19,12H20V13H19zM20,12H21V13H20zM23,12H24V13H23zM25,12H26V13H25zM26,12H27V13H26zM28,12H29V13H28zM30,12H31V13H30zM31,12H32V13H31zM32,12H33V13H32zM33,12H34V13H33zM34,12H35V13H34zM2,13H3V14H2zM4,13H5V14H4zM5,13H6V14H5zM7,13H8V14H7zM10,13H11V14H10zM11,13H12V14H11zM16,13H17V14H16zM17,13H18V14H17zM19,13H20V14H19zM22,13H23V14H22zM24,13H25V14H24zM25,13H26V14H25zM27,13H28V14H27zM29,13H30V14H29zM32,13H33V14H32zM33,13H34V14H33zM3,14H4V15H3zM5,14H6V15H5zM8,14H9V15H8zM11,14H12V15H11zM12,14H13V15H12zM14,14H15V15H14zM15,14H16V15H15zM16,14H17V15H16zM18,14H19V15H18zM19,14H20V15H19zM20,14H21V15H20zM22,14H23V15H22zM26,14H27V15H26zM28,14H29V15H28zM29,14H30V15H29zM34,14H35V15H34zM4,15H5V16H4zM5,15H6V16H5zM11,15H12V16H11zM12,15H13V16H12zM13,15H14V16H13zM14,15H15V16H14zM18,15H19V16H18zM19,15H20V16H19zM21,15H22V16H21zM23,15H24V16H23zM25,15H26V16H25zM27,15H28V16H27zM29,15H30V16H29zM32,15H33V16H32zM2,16H3V17H2zM4,16H5V17H4zM7,16H8V17H7zM8,16H9V17H8zM9,16H10V17H9zM10,16H11V17H10zM12,16H13V17H12zM13,16H14V17H13zM15,16H16V17H15zM18,16H19V17H18zM23,16H24V17H23zM24,16H25V17H24zM28,16H29V17H28zM2,17H3V18H2zM3,17H4V18H3zM6,17H7V18H6zM9,17H10V18H9zM13,17H14V18H13zM15,17H16V18H15zM17,17H18V18H17zM21,17H22V18H21zM24,17H25V18H24zM27,17H28V18H27zM29,17H30V18H29zM32,17H33V18H32zM34,17H35V18H34zM5,18H6V19H5zM8,18H9V19H8zM9,18H10V19H9zM10,18H11V19H10zM12,18H13V19H12zM13,18H14V19H13zM15,18H16V19H15zM16,18H17V19H16zM21,18H22V19H21zM22,18H23V19H22zM25,18H26V19H25zM26,18H27V19H26zM27,18H28V19H27zM28,18H29V19H28zM29,18H30V19H29zM30,18H31V19H30zM31,18H32V19H31zM2,19H3V20H2zM3,19H4V20H3zM6,19H7V20H6zM7,19H8V20H7zM11,19H12V20H11zM14,19H15V20H14zM17,19H18V20H17zM18,19H19V20H18zM20,19H21V20H20zM21,19H22V20H21zM23,19H24V20H23zM27,19H28V20H27zM28,19H29V20H28zM30,19H31V20H30zM32,19H33V20H32zM33,19H34V20H33zM34,19H35V20H34zM3,20H4V21H3zM5,20H6V21H5zM7,20H8V21H7zM8,20H9V21H8zM11,20H12V21H11zM14,20H15V21H14zM17,20H18V21H17zM21,20H22V21H21zM23,20H24V21H23zM24,20H25V21H24zM25,20H26V21H25zM27,20H28V21H27zM29,20H30V21H29zM31,20H32V21H31zM32,20H33V21H32zM34,20H35V21H34zM3,21H4V22H3zM4,21H5V22H4zM5,21H6V22H5zM6,21H7V22H6zM7,21H8V22H7zM11,21H12V22H11zM12,21H13V22H12zM13,21H14V22H13zM14,21H15V22H14zM16,21H17V22H16zM17,21H18V22H17zM19,21H20V22H19zM20,21H21V22H20zM21,21H22V22H21zM22,21H23V22H22zM24,21H25V22H24zM26,21H27V22H26zM28,21H29V22H28zM30,21H31V22H30zM31,21H32V22H31zM32,21H33V22H32zM33,21H34V22H33zM34,21H35V22H34zM7,22H8V23H7zM8,22H9V23H8zM11,22H12V23H11zM12,22H13V23H12zM15,22H16V23H15zM17,22H18V23H17zM21,22H22V23H21zM25,22H26V23H25zM26,22H27V23H26zM27,22H28V23H27zM29,22H30V23H29zM31,22H32V23H31zM33,22H34V23H33zM34,22H35V23H34zM2,23H3V24H2zM4,23H5V24H4zM5,23H6V24H5zM7,23H8V24H7zM9,23H10V24H9zM11,23H12V24H11zM12,23H13V24H12zM13,23H14V24H13zM18,23H19V24H18zM19,23H20V24H19zM20,23H21V24H20zM22,23H23V24H22zM24,23H25V24H24zM25,23H26V24H25zM30,23H31V24H30zM31,23H32V24H31zM2,24H3V25H2zM4,24H5V25H4zM6,24H7V25H6zM7,24H8V25H7zM8,24H9V25H8zM9,24H10V25H9zM10,24H11V25H10zM11,24H12V25H11zM13,24H14V25H13zM14,24H15V25H14zM17,24H18V25H17zM18,24H19V25H18zM19,24H20V25H19zM23,24H24V25H23zM25,24H26V25H25zM26,24H27V25H26zM28,24H29V25H28zM30,24H31V25H30zM31,24H32V25H31zM33,24H34V25H33zM34,24H35V25H34zM2,25H3V26H2zM4,25H5V26H4zM5,25H6V26H5zM6,25H7V26H6zM10,25H11V26H10zM12,25H13V26H12zM16,25H17V26H16zM18,25H19V26H18zM19,25H20V26H19zM21,25H22V26H21zM22,25H23V26H22zM25,25H26V26H25zM29,25H30V26H29zM32,25H33V26H32zM34,25H35V26H34zM2,26H3V27H2zM3,26H4V27H3zM5,26H6V27H5zM8,26H9V27H8zM10,26H11V27H10zM11,26H12V27H11zM12,26H13V27H12zM15,26H16V27H15zM16,26H17V27H16zM17,26H18V27H17zM24,26H25V27H24zM25,26H26V27H25zM26,26H27V27H26zM27,26H28V27H27zM28,26H29V27H28zM29,26H30V27H29zM30,26H31V27H30zM31,26H32V27H31zM33,26H34V27H33zM34,26H35V27H34zM10,27H11V28H10zM11,27H12V28H11zM14,27H15V28H14zM15,27H16V28H15zM17,27H18V28H17zM18,27H19V28H18zM20,27H21V28H20zM22,27H23V28H22zM23,27H24V28H23zM24,27H25V28H24zM26,27H27V28H26zM30,27H31V28H30zM32,27H33V28H32zM33,27H34V28H33zM2,28H3V29H2zM3,28H4V29H3zM4,28H5V29H4zM5,28H6V29H5zM6,28H7V29H6zM7,28H8V29H7zM8,28H9V29H8zM10,28H11V29H10zM11,28H12V29H11zM13,28H14V29H13zM16,28H17V29H16zM17,28H18V29H17zM18,28H19V29H18zM20,28H21V29H20zM21,28H22V29H21zM25,28H26V29H25zM26,28H27V29H26zM28,28H29V29H28zM30,28H31V29H30zM32,28H33V29H32zM2,29H3V30H2zM8,29H9V30H8zM10,29H11V30H10zM22,29H23V30H22zM24,29H25V30H24zM25,29H26V30H25zM26,29H27V30H26zM30,29H31V30H30zM31,29H32V30H31zM32,29H33V30H32zM34,29H35V30H34zM2,30H3V31H2zM4,30H5V31H4zM5,30H6V31H5zM6,30H7V31H6zM8,30H9V31H8zM10,30H11V31H10zM12,30H13V31H12zM13,30H14V31H13zM14,30H15V31H14zM15,30H16V31H15zM16,30H17V31H16zM17,30H18V31H17zM19,30H20V31H19zM20,30H21V31H20zM22,30H23V31H22zM24,30H25V31H24zM25,30H26V31H25zM26,30H27V31H26zM27,30H28V31H27zM28,30H29V31H28zM29,30H30V31H29zM30,30H31V31H30zM33,30H34V31H33zM34,30H35V31H34zM2,31H3V32H2zM4,31H5V32H4zM5,31H6V32H5zM6,31H7V32H6zM8,31H9V32H8zM10,31H11V32H10zM11,31H12V32H11zM12,31H13V32H12zM14,31H15V32H14zM16,31H17V32H16zM21,31H22V32H21zM24,31H25V32H24zM25,31H26V32H25zM26,31H27V32H26zM27,31H28V32H27zM29,31H30V32H29zM31,31H32V32H31zM33,31H34V32H33zM34,31H35V32H34zM2,32H3V33H2zM4,32H5V33H4zM5,32H6V33H5zM6,32H7V33H6zM8,32H9V33H8zM13,32H14V33H13zM14,32H15V33H14zM18,32H19V33H18zM19,32H20V33H19zM20,32H21V33H20zM21,32H22V33H21zM24,32H25V33H24zM25,32H26V33H25zM27,32H28V33H27zM29,32H30V33H29zM30,32H31V33H30zM32,32H33V33H32zM33,32H34V33H33zM34,32H35V33H34zM2,33H3V34H2zM8,33H9V34H8zM12,33H13V34H12zM16,33H17V34H16zM17,33H18V34H17zM18,33H19V34H18zM24,33H25V34H24zM25,33H26V34H25zM29,33H30V34H29zM30,33H31V34H30zM31,33H32V34H31zM32,33H33V34H32zM33,33H34V34H33zM34,33H35V34H34zM2,34H3V35H2zM3,34H4V35H3zM4,34H5V35H4zM5,34H6V35H5zM6,34H7V35H6zM7,34H8V35H7zM8,34H9V35H8zM10,34H11V35H10zM12,34H13V35H12zM13,34H14V35H13zM15,34H16V35H15zM19,34H20V35H19zM21,34H22V35H21zM22,34H23V35H22zM24,34H25V35H24zM25,34H26V35H25zM26,34H27V35H26zM29,34H30V35H29zM30,34H31V35H30z" id="qr-path" fill="#000000" fill-opacity="1" fill-rule="nonzero" stroke="none"/></svg>